# xmcd CD database file
#
# Track frame offsets:
#	187
#	24312
#	50825
#	67625
#	102112
#
# Disc length: 1784 seconds
#
# Revision: 0
# Processed by: cddbd v1.5.1PL2 Copyright (c) Steve Scherf et al.
# Submitted via: CDex 1.50
#
DISCID=3406f605
DTITLE=Stan Getz - More West Coast Jazz
DYEAR=1953
DGENRE=Jazz
TTITLE0=Willow Weep for Me
TTITLE1=Crazy Rhythm
TTITLE2=The Nearness of You
TTITLE3=I Didn't Know What Time It Was
TTITLE4=Tangerine
EXTD=YEAR: 1953
EXTT0=
EXTT1=
EXTT2=
EXTT3=
EXTT4=
PLAYORDER=
